<?xml version="1.0" encoding="UTF-8"?>
<!DOCTYPE svg PUBLIC "-//W3C//DTD SVG 1.1//EN" "http://www.w3.org/Graphics/SVG/1.1/DTD/svg11.dtd">
<svg xmlns="http://www.w3.org/2000/svg" version="1.1" width="1846px" height="590px" style="shape-rendering:geometricPrecision; text-rendering:geometricPrecision; image-rendering:optimizeQuality; fill-rule:evenodd; clip-rule:evenodd" xmlns:xlink="http://www.w3.org/1999/xlink">
<g><path style="opacity:0.996" fill="#236c9d" d="M 203.5,-0.5 C 210.833,-0.5 218.167,-0.5 225.5,-0.5C 225.667,58.1676 225.5,116.834 225,175.5C 221.376,180.154 216.876,181.321 211.5,179C 190.988,155.868 166.988,151.201 139.5,165C 118.926,181.091 111.76,201.925 118,227.5C 128.427,256.469 148.927,268.635 179.5,264C 192.626,260.183 203.626,253.183 212.5,243C 216.829,241.849 220.662,242.682 224,245.5C 225.492,304.75 225.992,364.083 225.5,423.5C 219.5,423.5 213.5,423.5 207.5,423.5C 166.332,421.056 127.998,409.223 92.5,388C 35.502,348.526 4.50203,294.026 -0.5,224.5C -0.5,215.833 -0.5,207.167 -0.5,198.5C 4.57304,128.506 35.9064,73.6722 93.5,34C 127.511,13.8341 164.178,2.33407 203.5,-0.5 Z"/></g>
<g><path style="opacity:0.995" fill="#3bbcae" d="M 233.5,-0.5 C 241.167,-0.5 248.833,-0.5 256.5,-0.5C 300.709,2.62521 341.042,16.7919 377.5,42C 444.296,97.0182 470.462,167.518 456,253.5C 444.807,308.421 416.64,352.254 371.5,385C 334.864,408.379 294.864,421.212 251.5,423.5C 245.5,423.5 239.5,423.5 233.5,423.5C 233.988,364.108 233.488,304.775 232,245.5C 226.692,236.641 219.192,234.141 209.5,238C 190.734,260.219 168.401,264.886 142.5,252C 129.46,241.585 122.794,227.918 122.5,211C 126.869,173.486 147.536,158.486 184.5,166C 194.223,169.726 202.223,175.726 208.5,184C 219.74,188.699 227.907,185.532 233,174.5C 233.5,116.168 233.667,57.8343 233.5,-0.5 Z M 323.5,71.5 C 330.279,72.3836 335.612,75.5503 339.5,81C 339.22,82.395 338.553,83.5617 337.5,84.5C 333.836,83.5087 331.17,81.3421 329.5,78C 325.872,77.21 323.872,75.0433 323.5,71.5 Z M 358.5,73.5 C 362.602,73.9418 366.269,75.4418 369.5,78C 376.97,84.4684 384.136,91.3017 391,98.5C 391.015,101.458 389.681,103.792 387,105.5C 385.444,100.905 383.444,96.5718 381,92.5C 378.844,93.9851 376.677,95.4851 374.5,97C 373.216,97.6838 372.049,97.5171 371,96.5C 369.861,93.4167 368.528,90.4167 367,87.5C 363.143,83.6111 359.643,79.4444 356.5,75C 357.416,74.7216 358.082,74.2216 358.5,73.5 Z M 363.5,99.5 C 370.897,102.948 377.73,107.282 384,112.5C 383.95,114.752 382.784,116.418 380.5,117.5C 379.167,116.167 377.833,114.833 376.5,113.5C 371.969,118.767 368.969,117.767 367.5,110.5C 367.608,109.558 367.941,108.725 368.5,108C 366.432,105.358 364.765,102.525 363.5,99.5 Z M 421.5,146.5 C 418.323,144.411 414.989,142.577 411.5,141C 403.801,139.365 400.634,142.531 402,150.5C 398.437,157.411 393.603,158.245 387.5,153C 387,152.5 386.5,152 386,151.5C 385.333,147.833 385.333,144.167 386,140.5C 390.404,143.714 393.571,142.714 395.5,137.5C 391.691,134.858 388.024,132.025 384.5,129C 386.032,126.966 387.365,124.799 388.5,122.5C 389.689,121.571 391.022,121.238 392.5,121.5C 391.669,116.99 390.669,112.49 389.5,108C 389.833,106.833 390.167,105.667 390.5,104.5C 393.172,105.501 395.839,106.501 398.5,107.5C 408.257,119.26 415.924,132.26 421.5,146.5 Z M 311.5,106.5 C 316.037,106.884 320.371,108.051 324.5,110C 325.335,113.573 323.835,116.073 320,117.5C 316.193,114.533 313.359,110.867 311.5,106.5 Z M 388.5,351.5 C 395.894,341.063 403.061,330.396 410,319.5C 410.728,316.77 410.562,314.103 409.5,311.5C 413.227,304.941 415.894,297.941 417.5,290.5C 416.634,288.568 415.967,286.568 415.5,284.5C 417.331,280.838 419.164,277.172 421,273.5C 422.441,268.759 422.941,264.092 422.5,259.5C 415.931,260.19 409.764,262.19 404,265.5C 402.013,264.846 400.68,263.513 400,261.5C 398.593,255.245 397.593,248.912 397,242.5C 393.981,239.491 391.814,235.991 390.5,232C 392.755,226.658 395.422,221.491 398.5,216.5C 398.167,216.167 397.833,215.833 397.5,215.5C 395.568,216.366 393.568,217.033 391.5,217.5C 389.391,217.225 388.058,216.058 387.5,214C 390.083,206.666 393.083,199.499 396.5,192.5C 393.827,187.11 392.994,181.443 394,175.5C 394.774,173.061 396.274,171.227 398.5,170C 403.257,169.188 407.757,167.688 412,165.5C 414.445,168.645 415.779,172.312 416,176.5C 420.797,181.23 426.13,185.23 432,188.5C 432.726,198.126 433.393,207.792 434,217.5C 435.507,219.008 437.173,220.341 439,221.5C 440.116,272.015 423.282,315.348 388.5,351.5 Z M 226.5,209.5 C 231.369,210.601 235.702,212.768 239.5,216C 242.232,216.413 244.899,217.08 247.5,218C 248.293,219.085 248.96,220.252 249.5,221.5C 247.235,222.647 244.902,222.814 242.5,222C 238.381,220.295 234.715,217.961 231.5,215C 228.089,214.973 224.756,214.806 221.5,214.5C 220.479,213.998 220.312,213.332 221,212.5C 222.876,211.391 224.709,210.391 226.5,209.5 Z M 255.5,220.5 C 259.904,221.094 263.904,222.594 267.5,225C 264.178,225.059 261.344,226.226 259,228.5C 256.692,227.359 254.859,225.692 253.5,223.5C 254.193,222.482 254.859,221.482 255.5,220.5 Z M 237.5,225.5 C 240.932,225.248 241.932,226.581 240.5,229.5C 238.45,228.923 237.45,227.59 237.5,225.5 Z M 260.5,251.5 C 264.262,253.413 267.929,255.579 271.5,258C 273.902,258.814 276.235,258.647 278.5,257.5C 279.891,255.11 281.891,253.443 284.5,252.5C 290.339,254.672 295.006,258.339 298.5,263.5C 303.815,265.482 307.482,269.148 309.5,274.5C 311.996,275.58 314.33,276.914 316.5,278.5C 316.833,281.833 317.167,285.167 317.5,288.5C 320.288,287.022 323.122,285.689 326,284.5C 326.946,286.788 328.113,288.955 329.5,291C 339.037,293.19 346.371,298.524 351.5,307C 348.018,310.812 344.185,314.312 340,317.5C 337.326,323.201 335.659,329.201 335,335.5C 331.706,342.404 326.206,346.238 318.5,347C 312.627,354.54 305.794,361.04 298,366.5C 297.727,368.101 297.227,369.601 296.5,371C 292.571,372.029 288.571,372.863 284.5,373.5C 282.133,377.572 280.3,381.905 279,386.5C 277.108,387.13 275.441,388.13 274,389.5C 271.758,395.645 269.258,401.645 266.5,407.5C 263.312,405.146 260.645,402.312 258.5,399C 259.958,396.54 261.791,394.373 264,392.5C 264.716,389.582 264.216,386.915 262.5,384.5C 266.771,372.081 270.105,359.415 272.5,346.5C 271.806,340.247 269.639,334.58 266,329.5C 263.096,327.773 259.93,327.107 256.5,327.5C 254.185,319.339 249.352,313.005 242,308.5C 240.437,303.282 240.104,297.949 241,292.5C 246.221,285.889 249.387,278.389 250.5,270C 249.215,267.361 247.882,264.694 246.5,262C 247.873,260.521 249.373,260.688 251,262.5C 254.032,258.641 257.198,254.974 260.5,251.5 Z"/></g>
<g><path style="opacity:0.916" fill="#236a9b" d="M 1845.5,89.5 C 1845.5,95.5 1845.5,101.5 1845.5,107.5C 1835.68,127.895 1820.35,133.395 1799.5,124C 1788.25,115.597 1784.08,104.43 1787,90.5C 1792.93,72.9452 1805.1,65.7786 1823.5,69C 1834.26,72.2585 1841.59,79.0918 1845.5,89.5 Z M 1809.5,74.5 C 1827.42,72.7518 1837.75,80.7518 1840.5,98.5C 1837.96,115.877 1827.96,123.711 1810.5,122C 1796.3,116.775 1790.46,106.608 1793,91.5C 1796.02,83.3156 1801.52,77.649 1809.5,74.5 Z M 1808.5,87.5 C 1812.91,87.021 1817.08,87.6876 1821,89.5C 1822.14,92.5282 1821.31,94.6949 1818.5,96C 1815.18,96.4983 1811.85,96.665 1808.5,96.5C 1808.5,93.5 1808.5,90.5 1808.5,87.5 Z"/></g>
<g><path style="opacity:0.874" fill="#236b9c" d="M 1802.5,82.5 C 1809.17,82.3337 1815.84,82.5004 1822.5,83C 1827.99,86.1418 1829.49,90.6418 1827,96.5C 1825.27,98.6166 1823.1,100.117 1820.5,101C 1824.43,105.016 1827.76,109.516 1830.5,114.5C 1827.83,115.833 1825.17,115.833 1822.5,114.5C 1820.37,110.535 1818.03,106.702 1815.5,103C 1813.32,101.798 1810.99,101.298 1808.5,101.5C 1808.5,106.167 1808.5,110.833 1808.5,115.5C 1806.5,115.5 1804.5,115.5 1802.5,115.5C 1802.5,104.5 1802.5,93.5 1802.5,82.5 Z M 1808.5,87.5 C 1808.5,90.5 1808.5,93.5 1808.5,96.5C 1811.85,96.665 1815.18,96.4983 1818.5,96C 1821.31,94.6949 1822.14,92.5282 1821,89.5C 1817.08,87.6876 1812.91,87.021 1808.5,87.5 Z"/></g>
<g><path style="opacity:0.985" fill="#236c9d" d="M 1526.5,95.5 C 1543.69,94.4215 1559.52,98.4215 1574,107.5C 1574.5,104.183 1574.67,100.85 1574.5,97.5C 1582.5,97.5 1590.5,97.5 1598.5,97.5C 1598.5,114.167 1598.5,130.833 1598.5,147.5C 1590.49,147.666 1582.49,147.5 1574.5,147C 1565.86,126.345 1550.53,118.345 1528.5,123C 1513.31,128.541 1504.14,139.374 1501,155.5C 1496.49,175.98 1501.99,193.146 1517.5,207C 1541.91,218.418 1560.41,212.251 1573,188.5C 1574.2,185.226 1575.2,181.893 1576,178.5C 1576.56,177.978 1577.23,177.645 1578,177.5C 1587.31,181.57 1596.15,186.237 1604.5,191.5C 1593.02,224.175 1569.85,240.175 1535,239.5C 1487.74,238.901 1462.57,215.068 1459.5,168C 1461.63,125.036 1483.97,100.869 1526.5,95.5 Z"/></g>
<g><path style="opacity:0.985" fill="#236c9d" d="M 591.5,98.5 C 611.497,96.055 630.497,99.2217 648.5,108C 679.782,130.244 689.282,159.744 677,196.5C 662.65,226.271 638.817,240.604 605.5,239.5C 564.185,239.615 539.018,219.615 530,179.5C 527.359,134.735 547.859,107.735 591.5,98.5 Z M 597.5,124.5 C 622.007,122.5 636.841,133.5 642,157.5C 644.392,172.033 642.058,185.7 635,198.5C 619.951,215.492 602.784,217.992 583.5,206C 571.364,193.649 566.531,178.815 569,161.5C 570.519,142.836 580.019,130.503 597.5,124.5 Z"/></g>
<g><path style="opacity:0.984" fill="#236c9d" d="M 701.5,97.5 C 725.167,97.5 748.833,97.5 772.5,97.5C 772.5,105.833 772.5,114.167 772.5,122.5C 766.794,122.171 761.128,122.505 755.5,123.5C 762.715,145.312 770.215,166.979 778,188.5C 785.505,166.65 793.005,144.817 800.5,123C 794.509,122.501 788.509,122.334 782.5,122.5C 782.184,114.248 782.518,106.081 783.5,98C 804.164,97.5 824.831,97.3334 845.5,97.5C 845.5,105.833 845.5,114.167 845.5,122.5C 839.794,122.171 834.128,122.505 828.5,123.5C 815.235,161.463 802.068,199.463 789,237.5C 783.913,238.155 778.746,238.488 773.5,238.5C 768.085,238.471 762.918,237.805 758,236.5C 744.864,198.758 731.53,161.091 718,123.5C 712.259,122.525 706.425,122.192 700.5,122.5C 700.198,114.082 700.531,105.748 701.5,97.5 Z"/></g>
<g><path style="opacity:0.986" fill="#236c9d" d="M 864.5,97.5 C 905.5,97.5 946.5,97.5 987.5,97.5C 987.5,112.5 987.5,127.5 987.5,142.5C 978.5,142.5 969.5,142.5 960.5,142.5C 960.5,135.833 960.5,129.167 960.5,122.5C 946.5,122.5 932.5,122.5 918.5,122.5C 918.5,132.833 918.5,143.167 918.5,153.5C 929.833,153.5 941.167,153.5 952.5,153.5C 952.5,161.5 952.5,169.5 952.5,177.5C 941.167,177.5 929.833,177.5 918.5,177.5C 918.5,189.5 918.5,201.5 918.5,213.5C 932.5,213.5 946.5,213.5 960.5,213.5C 960.5,206.5 960.5,199.5 960.5,192.5C 969.5,192.5 978.5,192.5 987.5,192.5C 987.5,207.5 987.5,222.5 987.5,237.5C 946.5,237.5 905.5,237.5 864.5,237.5C 864.5,229.5 864.5,221.5 864.5,213.5C 869.833,213.5 875.167,213.5 880.5,213.5C 880.5,183.167 880.5,152.833 880.5,122.5C 875.167,122.5 869.833,122.5 864.5,122.5C 864.5,114.167 864.5,105.833 864.5,97.5 Z"/></g>
<g><path style="opacity:0.986" fill="#236c9d" d="M 1006.5,97.5 C 1034.84,97.3334 1063.17,97.5 1091.5,98C 1125.64,99.4621 1139.8,116.962 1134,150.5C 1132.05,155.557 1129.22,160.057 1125.5,164C 1121.3,167.03 1116.97,169.863 1112.5,172.5C 1119.47,185.959 1126.63,199.293 1134,212.5C 1140.08,213.476 1146.24,213.81 1152.5,213.5C 1152.5,221.5 1152.5,229.5 1152.5,237.5C 1137.82,237.833 1123.15,237.499 1108.5,236.5C 1098.5,217.167 1088.5,197.833 1078.5,178.5C 1073.21,177.505 1067.87,177.172 1062.5,177.5C 1062.5,189.5 1062.5,201.5 1062.5,213.5C 1068.5,213.5 1074.5,213.5 1080.5,213.5C 1080.5,221.5 1080.5,229.5 1080.5,237.5C 1055.83,237.5 1031.17,237.5 1006.5,237.5C 1006.5,229.5 1006.5,221.5 1006.5,213.5C 1012.83,213.5 1019.17,213.5 1025.5,213.5C 1025.5,183.167 1025.5,152.833 1025.5,122.5C 1019.17,122.5 1012.83,122.5 1006.5,122.5C 1006.5,114.167 1006.5,105.833 1006.5,97.5 Z M 1062.5,122.5 C 1070.92,122.094 1079.25,122.594 1087.5,124C 1097.18,129.048 1099.68,136.548 1095,146.5C 1093.06,149.106 1090.56,150.939 1087.5,152C 1079.24,153.37 1070.9,153.87 1062.5,153.5C 1062.5,143.167 1062.5,132.833 1062.5,122.5 Z"/></g>
<g><path style="opacity:0.987" fill="#236c9d" d="M 1170.5,97.5 C 1212.83,97.5 1255.17,97.5 1297.5,97.5C 1297.5,116.5 1297.5,135.5 1297.5,154.5C 1289.17,154.5 1280.83,154.5 1272.5,154.5C 1272.5,143.833 1272.5,133.167 1272.5,122.5C 1265.83,122.5 1259.17,122.5 1252.5,122.5C 1252.5,152.833 1252.5,183.167 1252.5,213.5C 1259.5,213.5 1266.5,213.5 1273.5,213.5C 1273.5,221.5 1273.5,229.5 1273.5,237.5C 1247.17,237.5 1220.83,237.5 1194.5,237.5C 1194.5,229.5 1194.5,221.5 1194.5,213.5C 1201.5,213.5 1208.5,213.5 1215.5,213.5C 1215.5,183.167 1215.5,152.833 1215.5,122.5C 1208.83,122.5 1202.17,122.5 1195.5,122.5C 1195.5,133.167 1195.5,143.833 1195.5,154.5C 1187.17,154.5 1178.83,154.5 1170.5,154.5C 1170.5,135.5 1170.5,116.5 1170.5,97.5 Z"/></g>
<g><path style="opacity:0.985" fill="#236c9d" d="M 1317.5,97.5 C 1358.5,97.5 1399.5,97.5 1440.5,97.5C 1440.5,112.5 1440.5,127.5 1440.5,142.5C 1431.5,142.5 1422.5,142.5 1413.5,142.5C 1413.5,135.833 1413.5,129.167 1413.5,122.5C 1399.5,122.5 1385.5,122.5 1371.5,122.5C 1371.5,132.833 1371.5,143.167 1371.5,153.5C 1383.17,153.5 1394.83,153.5 1406.5,153.5C 1406.5,161.5 1406.5,169.5 1406.5,177.5C 1394.83,177.5 1383.17,177.5 1371.5,177.5C 1371.5,189.5 1371.5,201.5 1371.5,213.5C 1385.5,213.5 1399.5,213.5 1413.5,213.5C 1413.5,206.5 1413.5,199.5 1413.5,192.5C 1422.5,192.5 1431.5,192.5 1440.5,192.5C 1440.5,207.5 1440.5,222.5 1440.5,237.5C 1399.5,237.5 1358.5,237.5 1317.5,237.5C 1317.5,229.5 1317.5,221.5 1317.5,213.5C 1323.17,213.5 1328.83,213.5 1334.5,213.5C 1334.5,183.167 1334.5,152.833 1334.5,122.5C 1328.83,122.5 1323.17,122.5 1317.5,122.5C 1317.5,114.167 1317.5,105.833 1317.5,97.5 Z"/></g>
<g><path style="opacity:0.987" fill="#236c9d" d="M 1623.5,97.5 C 1646.17,97.5 1668.83,97.5 1691.5,97.5C 1691.5,105.833 1691.5,114.167 1691.5,122.5C 1686.83,122.5 1682.17,122.5 1677.5,122.5C 1677.5,132.167 1677.5,141.833 1677.5,151.5C 1689.83,151.5 1702.17,151.5 1714.5,151.5C 1714.5,141.833 1714.5,132.167 1714.5,122.5C 1709.5,122.5 1704.5,122.5 1699.5,122.5C 1699.18,114.248 1699.52,106.081 1700.5,98C 1722.83,97.5 1745.16,97.3334 1767.5,97.5C 1767.5,105.833 1767.5,114.167 1767.5,122.5C 1761.83,122.5 1756.17,122.5 1750.5,122.5C 1750.5,152.833 1750.5,183.167 1750.5,213.5C 1756.17,213.5 1761.83,213.5 1767.5,213.5C 1767.5,221.5 1767.5,229.5 1767.5,237.5C 1744.83,237.5 1722.17,237.5 1699.5,237.5C 1699.5,229.5 1699.5,221.5 1699.5,213.5C 1704.5,213.5 1709.5,213.5 1714.5,213.5C 1714.5,201.167 1714.5,188.833 1714.5,176.5C 1702.17,176.5 1689.83,176.5 1677.5,176.5C 1677.5,188.833 1677.5,201.167 1677.5,213.5C 1682.17,213.5 1686.83,213.5 1691.5,213.5C 1691.5,221.5 1691.5,229.5 1691.5,237.5C 1668.83,237.5 1646.17,237.5 1623.5,237.5C 1623.5,229.5 1623.5,221.5 1623.5,213.5C 1629.5,213.5 1635.5,213.5 1641.5,213.5C 1641.5,183.167 1641.5,152.833 1641.5,122.5C 1635.5,122.5 1629.5,122.5 1623.5,122.5C 1623.5,114.167 1623.5,105.833 1623.5,97.5 Z"/></g>
<g><path style="opacity:1" fill="#3bbcae" d="M 674.5,266.5 C 678.833,266.5 683.167,266.5 687.5,266.5C 687.5,298.833 687.5,331.167 687.5,363.5C 683.167,363.5 678.833,363.5 674.5,363.5C 674.5,331.167 674.5,298.833 674.5,266.5 Z"/></g>
<g><path style="opacity:0.986" fill="#3bbcae" d="M 1392.5,266.5 C 1396.5,266.5 1400.5,266.5 1404.5,266.5C 1404.5,298.833 1404.5,331.167 1404.5,363.5C 1400.5,363.5 1396.5,363.5 1392.5,363.5C 1392.5,331.167 1392.5,298.833 1392.5,266.5 Z"/></g>
<g><path style="opacity:0.947" fill="#3abaac" d="M 1455.5,269.5 C 1460.18,269.334 1464.85,269.501 1469.5,270C 1464.54,276.626 1459.21,282.96 1453.5,289C 1450.17,289.667 1446.83,289.667 1443.5,289C 1447.33,282.35 1451.33,275.85 1455.5,269.5 Z"/></g>
<g><path style="opacity:0.976" fill="#3bbbad" d="M 553.5,270.5 C 563.047,269.596 572.214,270.93 581,274.5C 580.953,278.476 579.786,282.142 577.5,285.5C 569.92,281.758 561.92,280.591 553.5,282C 545.462,285.243 542.629,291.077 545,299.5C 546.141,301.609 547.641,303.442 549.5,305C 557.014,308.923 564.681,312.59 572.5,316C 585.274,325.184 588.441,337.017 582,351.5C 577.357,358.461 570.857,362.628 562.5,364C 551.163,365.672 540.33,364.172 530,359.5C 529.788,355.791 530.622,352.291 532.5,349C 539.145,351.707 546.145,353.54 553.5,354.5C 564.232,354.494 570.566,349.327 572.5,339C 571.911,334.823 570.244,331.157 567.5,328C 558.921,323.475 550.254,319.141 541.5,315C 530.396,304.993 528.563,293.493 536,280.5C 540.946,275.449 546.779,272.115 553.5,270.5 Z"/></g>
<g><path style="opacity:0.964" fill="#3bbbad" d="M 877.5,271.5 C 879.833,271.5 882.167,271.5 884.5,271.5C 886.329,279.868 883.163,284.868 875,286.5C 870.344,285.255 865.844,283.588 861.5,281.5C 859.025,282.677 858.025,284.677 858.5,287.5C 855.833,287.5 853.167,287.5 850.5,287.5C 850.214,282.468 851.548,277.968 854.5,274C 857.702,272.517 861.036,272.183 864.5,273C 867.575,274.62 870.742,276.12 874,277.5C 876.909,276.571 878.075,274.571 877.5,271.5 Z"/></g>
<g><path style="opacity:0.959" fill="#3bbcae" d="M 1048.5,271.5 C 1071.17,271.5 1093.83,271.5 1116.5,271.5C 1116.5,275.167 1116.5,278.833 1116.5,282.5C 1107.17,282.5 1097.83,282.5 1088.5,282.5C 1088.5,309.5 1088.5,336.5 1088.5,363.5C 1084.17,363.5 1079.83,363.5 1075.5,363.5C 1075.5,336.5 1075.5,309.5 1075.5,282.5C 1066.5,282.5 1057.5,282.5 1048.5,282.5C 1048.5,278.833 1048.5,275.167 1048.5,271.5 Z"/></g>
<g><path style="opacity:0.968" fill="#3abbad" d="M 1575.5,271.5 C 1583.66,270.823 1587.16,274.49 1586,282.5C 1582.11,288.259 1577.44,288.926 1572,284.5C 1569.63,279.11 1570.8,274.776 1575.5,271.5 Z"/></g>
<g><path style="opacity:0.976" fill="#3bbbad" d="M 625.5,295.5 C 652.156,297.418 663.656,311.752 660,338.5C 657.515,351.995 649.682,360.495 636.5,364C 611.537,367.037 597.871,356.037 595.5,331C 596.068,310.948 606.068,299.115 625.5,295.5 Z M 625.5,305.5 C 640.416,306.929 647.75,315.263 647.5,330.5C 647.41,344.066 640.91,352.4 628,355.5C 618.459,353.627 612.459,347.96 610,338.5C 607.139,326.419 610.305,316.253 619.5,308C 621.611,307.155 623.611,306.322 625.5,305.5 Z"/></g>
<g><path style="opacity:0.973" fill="#3bbbad" d="M 801.5,296.5 C 808.175,296.334 814.842,296.5 821.5,297C 824.251,297.516 826.584,298.683 828.5,300.5C 827.607,303.814 826.274,306.814 824.5,309.5C 803.979,302.089 791.979,309.089 788.5,330.5C 790.116,347.621 799.45,355.455 816.5,354C 819.824,353.057 823.157,352.224 826.5,351.5C 826.692,354.601 827.358,357.601 828.5,360.5C 823.142,363.09 817.475,364.59 811.5,365C 810.257,366.154 809.257,367.488 808.5,369C 817.633,372.603 819.633,378.603 814.5,387C 808.151,390.742 801.484,391.409 794.5,389C 793.55,386.568 793.55,384.068 794.5,381.5C 797.344,382.058 800.178,382.725 803,383.5C 807.591,382.67 808.758,380.504 806.5,377C 803.534,375.734 800.534,374.567 797.5,373.5C 799.293,370.749 800.959,367.916 802.5,365C 785.258,360.582 776.258,349.415 775.5,331.5C 776.202,313.709 784.869,302.042 801.5,296.5 Z"/></g>
<g><path style="opacity:0.973" fill="#3bbbad" d="M 864.5,295.5 C 885.211,295.093 897.045,305.093 900,325.5C 900.607,353.893 886.773,366.726 858.5,364C 845.275,360.061 837.775,351.228 836,337.5C 832.939,314.546 842.439,300.546 864.5,295.5 Z M 865.5,305.5 C 874.07,305.256 880.237,308.922 884,316.5C 889.441,329.752 887.274,341.585 877.5,352C 864.356,358.018 855.189,354.185 850,340.5C 846.466,328.474 848.966,317.974 857.5,309C 860.158,307.522 862.825,306.355 865.5,305.5 Z"/></g>
<g><path style="opacity:0.976" fill="#3bbbad" d="M 937.5,295.5 C 953.824,294.906 963.658,302.572 967,318.5C 967.499,323.489 967.666,328.489 967.5,333.5C 952.152,333.167 936.819,333.501 921.5,334.5C 923.665,347.832 931.498,354.499 945,354.5C 950.997,354.375 956.83,353.375 962.5,351.5C 962.852,354.428 963.518,357.262 964.5,360C 961.155,362.091 957.488,363.424 953.5,364C 938.296,367.498 925.463,363.665 915,352.5C 908.281,339.425 907.781,326.092 913.5,312.5C 918.787,302.862 926.787,297.196 937.5,295.5 Z M 935.5,305.5 C 948.137,304.801 954.804,310.801 955.5,323.5C 944.5,323.5 933.5,323.5 922.5,323.5C 923.44,314.921 927.773,308.921 935.5,305.5 Z"/></g>
<g><path style="opacity:0.973" fill="#3bbbad" d="M 998.5,295.5 C 1002.88,295.577 1007.21,296.077 1011.5,297C 1019.62,299.068 1020.62,303.235 1014.5,309.5C 1007.19,304.581 1000.02,304.581 993,309.5C 990.46,314.097 991.293,317.93 995.5,321C 1004.05,323.852 1011.55,328.352 1018,334.5C 1024.09,349.26 1019.59,359.094 1004.5,364C 998.833,364.667 993.167,364.667 987.5,364C 984.097,363.422 980.93,362.255 978,360.5C 977.688,356.926 978.521,353.593 980.5,350.5C 988.241,355.093 996.241,355.926 1004.5,353C 1009.25,348.649 1009.59,343.982 1005.5,339C 998.833,335.667 992.167,332.333 985.5,329C 976.517,319.162 976.85,309.496 986.5,300C 990.432,297.972 994.432,296.472 998.5,295.5 Z"/></g>
<g><path style="opacity:0.98" fill="#3bbbad" d="M 1138.5,295.5 C 1154.06,294.577 1163.9,301.577 1168,316.5C 1169.22,321.455 1169.55,326.455 1169,331.5C 1154.08,333.474 1138.91,334.141 1123.5,333.5C 1124.38,347.545 1131.88,354.545 1146,354.5C 1151.54,354.615 1156.87,353.615 1162,351.5C 1162.95,351.905 1163.61,352.572 1164,353.5C 1164.31,355.556 1164.81,357.556 1165.5,359.5C 1162.44,362.249 1158.77,363.749 1154.5,364C 1119.43,366.919 1105.59,351.086 1113,316.5C 1117.64,304.624 1126.14,297.624 1138.5,295.5 Z M 1136.5,305.5 C 1149.15,304.821 1155.82,310.821 1156.5,323.5C 1145.5,323.5 1134.5,323.5 1123.5,323.5C 1124.46,314.865 1128.79,308.865 1136.5,305.5 Z"/></g>
<g><path style="opacity:0.97" fill="#3bbbad" d="M 1204.5,296.5 C 1210.84,296.334 1217.18,296.5 1223.5,297C 1226.67,297.077 1229,298.41 1230.5,301C 1229.6,303.877 1228.6,306.71 1227.5,309.5C 1215.77,304.211 1205.27,305.878 1196,314.5C 1189.73,325.74 1190.07,336.74 1197,347.5C 1201.74,352.033 1207.4,354.366 1214,354.5C 1218.93,353.892 1223.76,352.892 1228.5,351.5C 1228.93,354.376 1229.59,357.209 1230.5,360C 1227.72,362.488 1224.38,363.821 1220.5,364C 1190.02,366.855 1176.19,353.022 1179,322.5C 1182.35,308.653 1190.85,299.986 1204.5,296.5 Z"/></g>
<g><path style="opacity:0.975" fill="#3bbcae" d="M 1273.5,295.5 C 1287.45,295.377 1295.95,302.043 1299,315.5C 1299.5,331.497 1299.67,347.497 1299.5,363.5C 1295.17,363.5 1290.83,363.5 1286.5,363.5C 1286.67,348.163 1286.5,332.83 1286,317.5C 1280.49,305.778 1272.32,303.612 1261.5,311C 1259.62,313.251 1258.12,315.751 1257,318.5C 1256.5,333.496 1256.33,348.496 1256.5,363.5C 1252.17,363.5 1247.83,363.5 1243.5,363.5C 1243.78,341.478 1243.44,319.478 1242.5,297.5C 1246.5,297.5 1250.5,297.5 1254.5,297.5C 1254.34,300.518 1254.5,303.518 1255,306.5C 1259.82,300.348 1265.99,296.682 1273.5,295.5 Z"/></g>
<g><path style="opacity:0.976" fill="#3bbbad" d="M 1342.5,295.5 C 1365.19,295.528 1377.19,306.861 1378.5,329.5C 1376.69,355.805 1362.69,367.305 1336.5,364C 1323.69,360.194 1316.19,351.694 1314,338.5C 1310.62,315.177 1320.12,300.844 1342.5,295.5 Z M 1342.5,305.5 C 1357.26,306.771 1364.6,314.938 1364.5,330C 1365.08,338.83 1362.08,346.164 1355.5,352C 1340.74,357.96 1331.24,353.127 1327,337.5C 1324.81,326.421 1327.64,316.921 1335.5,309C 1337.93,307.787 1340.26,306.621 1342.5,305.5 Z"/></g>
<g><path style="opacity:0.976" fill="#3bbbad" d="M 1448.5,295.5 C 1475.2,297.385 1486.7,311.719 1483,338.5C 1477.43,359.216 1463.93,367.716 1442.5,364C 1430.59,360.427 1423.09,352.594 1420,340.5C 1415.48,316.136 1424.98,301.136 1448.5,295.5 Z M 1448.5,305.5 C 1463.51,306.854 1470.84,315.188 1470.5,330.5C 1470.41,339.839 1466.75,347.339 1459.5,353C 1445.92,357.286 1437.08,352.453 1433,338.5C 1430.17,326.34 1433.33,316.174 1442.5,308C 1444.72,307.434 1446.72,306.6 1448.5,305.5 Z"/></g>
<g><path style="opacity:0.972" fill="#3bbcae" d="M 1520.5,295.5 C 1530.1,295.049 1537.6,298.716 1543,306.5C 1543.5,303.518 1543.66,300.518 1543.5,297.5C 1547.17,297.5 1550.83,297.5 1554.5,297.5C 1554.67,319.169 1554.5,340.836 1554,362.5C 1551.77,382.06 1540.77,391.727 1521,391.5C 1513.48,391.662 1506.31,390.162 1499.5,387C 1499.15,383.812 1499.82,380.645 1501.5,377.5C 1501.83,377.167 1502.17,376.833 1502.5,376.5C 1512.66,382.208 1523,382.708 1533.5,378C 1540.59,371.732 1543.09,363.899 1541,354.5C 1529.22,365.449 1516.72,366.282 1503.5,357C 1494.05,346.969 1490.88,335.135 1494,321.5C 1497.5,307.16 1506.34,298.493 1520.5,295.5 Z M 1519.5,306.5 C 1530.03,304.676 1537.19,308.676 1541,318.5C 1541.67,325.833 1541.67,333.167 1541,340.5C 1535.4,352.811 1526.57,355.977 1514.5,350C 1510.62,347.072 1508.12,343.239 1507,338.5C 1503.61,324.595 1507.78,313.928 1519.5,306.5 Z"/></g>
<g><path style="opacity:0.971" fill="#3bbbad" d="M 1624.5,296.5 C 1631.17,296.334 1637.84,296.5 1644.5,297C 1647.25,297.516 1649.58,298.683 1651.5,300.5C 1650.91,303.925 1649.58,306.925 1647.5,309.5C 1636.11,304.272 1625.94,305.939 1617,314.5C 1611.84,323.795 1611.17,333.461 1615,343.5C 1620.84,352.229 1629,355.729 1639.5,354C 1642.82,353.057 1646.16,352.224 1649.5,351.5C 1649.91,354.553 1650.58,357.553 1651.5,360.5C 1648.51,362.552 1645.18,363.719 1641.5,364C 1610.51,366.672 1596.67,352.505 1600,321.5C 1603.68,308.651 1611.85,300.318 1624.5,296.5 Z"/></g>
<g><path style="opacity:0.974" fill="#3bbbad" d="M 1681.5,295.5 C 1692.77,294.412 1701.6,298.412 1708,307.5C 1708.67,309.5 1709.33,311.5 1710,313.5C 1710.35,330.175 1710.85,346.842 1711.5,363.5C 1707.77,363.823 1704.11,363.489 1700.5,362.5C 1699.81,360.556 1699.31,358.556 1699,356.5C 1691.72,364.072 1682.89,366.572 1672.5,364C 1661.07,359.311 1656.91,350.811 1660,338.5C 1663.87,330.133 1670.37,324.966 1679.5,323C 1685.77,321.743 1692.1,321.243 1698.5,321.5C 1698.48,311.444 1693.48,306.111 1683.5,305.5C 1677.76,305.971 1672.42,307.638 1667.5,310.5C 1665.61,308.206 1664.28,305.539 1663.5,302.5C 1663.71,301.914 1664.04,301.414 1664.5,301C 1670.04,298.374 1675.7,296.54 1681.5,295.5 Z M 1687.5,330.5 C 1691.17,330.5 1694.83,330.5 1698.5,330.5C 1701.39,344.084 1696.22,352.417 1683,355.5C 1672.58,353.245 1669.58,347.245 1674,337.5C 1677.98,333.931 1682.48,331.597 1687.5,330.5 Z"/></g>
<g><path style="opacity:0.972" fill="#3bbbad" d="M 1746.5,295.5 C 1752.69,295.698 1758.69,296.865 1764.5,299C 1765.45,302.689 1764.79,306.189 1762.5,309.5C 1756.46,305.9 1750.13,305.067 1743.5,307C 1736.6,312.416 1736.93,317.416 1744.5,322C 1750.46,324.095 1756.12,326.761 1761.5,330C 1771.22,341.059 1770.55,351.392 1759.5,361C 1751.5,364.336 1743.17,365.336 1734.5,364C 1731.1,363.422 1727.93,362.255 1725,360.5C 1725,357.169 1725.83,354.002 1727.5,351C 1732.57,352.963 1737.91,354.463 1743.5,355.5C 1753.32,354.557 1756.82,349.557 1754,340.5C 1753.17,339.667 1752.33,338.833 1751.5,338C 1745.75,335.526 1740.08,332.86 1734.5,330C 1725.21,321.92 1724.04,312.753 1731,302.5C 1735.52,298.504 1740.68,296.17 1746.5,295.5 Z"/></g>
<g><path style="opacity:0.98" fill="#3bbcae" d="M 706.5,297.5 C 710.5,297.5 714.5,297.5 718.5,297.5C 718.101,312.877 718.601,328.21 720,343.5C 724.629,354.376 732.129,356.876 742.5,351C 745.106,349.062 746.939,346.562 748,343.5C 749.435,328.225 749.935,312.891 749.5,297.5C 753.5,297.5 757.5,297.5 761.5,297.5C 761.33,319.511 761.664,341.511 762.5,363.5C 758.5,363.5 754.5,363.5 750.5,363.5C 750.665,360.482 750.498,357.482 750,354.5C 741.512,364.415 731.012,367.248 718.5,363C 712.079,359.33 708.245,353.83 707,346.5C 706.5,330.17 706.333,313.837 706.5,297.5 Z"/></g>
<g><path style="opacity:0.974" fill="#3bbcae" d="M 1572.5,297.5 C 1576.83,297.5 1581.17,297.5 1585.5,297.5C 1585.5,319.5 1585.5,341.5 1585.5,363.5C 1581.17,363.5 1576.83,363.5 1572.5,363.5C 1572.5,341.5 1572.5,319.5 1572.5,297.5 Z"/></g>
</svg>
